<svg width="40" height="40" viewBox="-8 -5 37 35" fill="currentColor"
  xmlns="http://www.w3.org/2000/svg">
  <path
    d="M8.47877 4.01786C8.47877 3.42586 8.71394 2.8581 9.13255 2.43949C9.55115 2.02089 10.1189 1.78571 10.7109 1.78571C11.3029 1.78571 11.8707 2.02089 12.2893 2.43949C12.7079 2.8581 12.9431 3.42586 12.9431 4.01786C12.9431 4.60986 12.7079 5.17761 12.2893 5.59622C11.8707 6.01483 11.3029 6.25 10.7109 6.25C10.1189 6.25 9.55115 6.01483 9.13255 5.59622C8.71394 5.17761 8.47877 4.60986 8.47877 4.01786ZM10.7109 3.71258e-07C10.1049 9.22555e-06 9.50682 0.137085 8.96132 0.400966C8.41582 0.664847 7.93708 1.0487 7.56092 1.52379C7.18477 1.99888 6.92095 2.55289 6.78921 3.14437C6.65747 3.73585 6.66122 4.34947 6.80019 4.93929L3.92162 3.77857C3.22319 3.49728 2.44196 3.50306 1.74777 3.79465C1.05358 4.08624 0.502552 4.64006 0.214479 5.33571C0.0718897 5.68022 -0.00100432 6.04957 1.0451e-05 6.42241C0.00102522 6.79525 0.0759289 7.1642 0.220391 7.50792C0.364854 7.85164 0.57601 8.16332 0.841655 8.42494C1.1073 8.68656 1.42217 8.89294 1.76805 9.03214L5.35377 10.4804V14.7375L2.11627 20.8268C1.94097 21.1563 1.83229 21.517 1.79643 21.8885C1.76057 22.26 1.79823 22.6349 1.90725 22.9918C2.01628 23.3488 2.19454 23.6807 2.43185 23.9687C2.66917 24.2568 2.9609 24.4952 3.29037 24.6705C3.95578 25.0246 4.73457 25.0997 5.45541 24.8796C6.17626 24.6594 6.78011 24.1618 7.13412 23.4964L10.7109 16.7679L14.2895 23.4964C14.6433 24.1618 15.2469 24.6595 15.9676 24.8798C16.6882 25.1002 17.4669 25.0252 18.1323 24.6714C18.7977 24.3177 19.2954 23.714 19.5157 22.9934C19.7361 22.2727 19.6611 21.494 19.3073 20.8286L16.0681 14.7357V10.4804L19.6538 9.03214C19.9997 8.89294 20.3145 8.68656 20.5802 8.42494C20.8458 8.16332 21.057 7.85164 21.2014 7.50792C21.3459 7.1642 21.4208 6.79525 21.4218 6.42241C21.4228 6.04957 21.3499 5.68022 21.2073 5.33571C20.9196 4.63974 20.3687 4.08551 19.6745 3.79357C18.9803 3.50163 18.1988 3.4956 17.5002 3.77679L14.6234 4.93929C14.7624 4.34932 14.7661 3.73555 14.6343 3.14394C14.5025 2.55233 14.2385 1.99821 13.8621 1.52309C13.4858 1.04796 13.0068 0.664147 12.4611 0.400382C11.9154 0.136617 11.317 -0.000260173 10.7109 3.71258e-07ZM1.86626 6.01607C1.97431 5.75629 2.18021 5.54944 2.43948 5.44018C2.69875 5.33093 2.9906 5.32804 3.25198 5.43214L9.37341 7.90536C10.2314 8.2519 11.1904 8.2519 12.0484 7.90536L18.1698 5.43214C18.4312 5.32804 18.7231 5.33093 18.9823 5.44018C19.2416 5.54944 19.4475 5.75629 19.5556 6.01607C19.6085 6.14281 19.6356 6.27881 19.6355 6.41615C19.6353 6.55349 19.6079 6.68943 19.5547 6.81605C19.5015 6.94268 19.4237 7.05746 19.3257 7.15373C19.2278 7.25 19.1117 7.32582 18.9841 7.37679L15.3984 8.82321C15.0681 8.95683 14.7853 9.1862 14.5864 9.48183C14.3875 9.77746 14.2816 10.1258 14.2823 10.4821V14.7375C14.2822 15.0302 14.3539 15.3184 14.4913 15.5768L17.7306 21.6679C17.8477 21.9136 17.8655 22.195 17.7803 22.4536C17.6951 22.7121 17.5135 22.9278 17.2732 23.0558C17.0329 23.1837 16.7526 23.2141 16.4905 23.1405C16.2284 23.0669 16.0048 22.895 15.8663 22.6607L12.2877 15.9286C12.1356 15.6424 11.9085 15.4031 11.6307 15.2361C11.3529 15.0692 11.035 14.981 10.7109 14.981C10.3868 14.981 10.0689 15.0692 9.79111 15.2361C9.51334 15.4031 9.28623 15.6424 9.13412 15.9286L5.55734 22.6554C5.49226 22.7778 5.40371 22.8862 5.29675 22.9744C5.18978 23.0625 5.06649 23.1288 4.93392 23.1693C4.80135 23.2099 4.66209 23.2239 4.52409 23.2106C4.3861 23.1974 4.25207 23.157 4.12966 23.092C4.00725 23.0269 3.89885 22.9383 3.81066 22.8314C3.72247 22.7244 3.65622 22.6011 3.61567 22.4686C3.57513 22.336 3.5611 22.1967 3.57437 22.0587C3.58765 21.9207 3.62798 21.7867 3.69305 21.6643L6.93055 15.575C7.06763 15.3171 7.13937 15.0296 7.13948 14.7375V10.4804C7.13947 10.1247 7.03324 9.77707 6.83439 9.48214C6.63554 9.18721 6.35315 8.95839 6.02341 8.825L2.43769 7.375C2.31016 7.32403 2.19404 7.24821 2.09609 7.15194C1.99813 7.05568 1.9203 6.94089 1.86713 6.81427C1.81395 6.68764 1.78649 6.5517 1.78634 6.41436C1.78619 6.27702 1.81336 6.14281 1.86626 6.01607Z"
    fill="currentColor" />
</svg>