<svg width="29" height="29" viewBox="0 0 29 29" fill="none" xmlns="http://www.w3.org/2000/svg">
<path d="M12.0536 5.80356C12.0536 5.21156 12.2888 4.64381 12.7074 4.2252C13.126 3.80659 13.6937 3.57142 14.2857 3.57142C14.8777 3.57142 15.4455 3.80659 15.8641 4.2252C16.2827 4.64381 16.5179 5.21156 16.5179 5.80356C16.5179 6.39556 16.2827 6.96332 15.8641 7.38193C15.4455 7.80053 14.8777 8.03571 14.2857 8.03571C13.6937 8.03571 13.126 7.80053 12.7074 7.38193C12.2888 6.96332 12.0536 6.39556 12.0536 5.80356ZM14.2857 1.78571C13.6798 1.78571 13.0816 1.92279 12.5361 2.18667C11.9906 2.45055 11.5119 2.8344 11.1357 3.30949C10.7596 3.78458 10.4958 4.3386 10.364 4.93008C10.2323 5.52156 10.2361 6.13517 10.375 6.72499L7.49645 5.56428C6.79802 5.28299 6.01679 5.28877 5.3226 5.58035C4.62841 5.87194 4.07738 6.42576 3.78931 7.12142C3.64672 7.46592 3.57382 7.83527 3.57484 8.20811C3.57585 8.58096 3.65076 8.9499 3.79522 9.29362C3.93968 9.63735 4.15084 9.94903 4.41648 10.2106C4.68213 10.4723 4.99699 10.6786 5.34288 10.8178L8.92859 12.2661V16.5232L5.69109 22.6125C5.5158 22.942 5.40712 23.3027 5.37126 23.6742C5.3354 24.0457 5.37305 24.4206 5.48208 24.7775C5.59111 25.1345 5.76937 25.4664 6.00668 25.7544C6.244 26.0425 6.53572 26.281 6.8652 26.4562C7.53061 26.8103 8.3094 26.8854 9.03024 26.6653C9.75109 26.4451 10.3549 25.9475 10.709 25.2821L14.2857 18.5536L17.8643 25.2821C18.2181 25.9475 18.8217 26.4452 19.5424 26.6655C20.2631 26.8859 21.0418 26.8109 21.7072 26.4571C22.3726 26.1034 22.8702 25.4997 23.0905 24.7791C23.3109 24.0584 23.2359 23.2797 22.8822 22.6143L19.6429 16.5214V12.2661L23.2286 10.8178C23.5745 10.6786 23.8893 10.4723 24.155 10.2106C24.4206 9.94903 24.6318 9.63735 24.7763 9.29362C24.9207 8.9499 24.9956 8.58096 24.9966 8.20811C24.9976 7.83527 24.9248 7.46592 24.7822 7.12142C24.4944 6.42544 23.9435 5.87121 23.2493 5.57928C22.5551 5.28734 21.7737 5.28131 21.075 5.56249L18.1982 6.72499C18.3372 6.13502 18.341 5.52125 18.2091 4.92964C18.0773 4.33803 17.8133 3.78392 17.437 3.30879C17.0606 2.83367 16.5816 2.44985 16.0359 2.18609C15.4902 1.92232 14.8919 1.78545 14.2857 1.78571ZM5.44109 7.80178C5.54914 7.542 5.75503 7.33514 6.01431 7.22589C6.27358 7.11663 6.56542 7.11375 6.82681 7.21785L12.9482 9.69106C13.8062 10.0376 14.7652 10.0376 15.6232 9.69106L21.7447 7.21785C22.006 7.11375 22.2979 7.11663 22.5572 7.22589C22.8164 7.33514 23.0223 7.542 23.1304 7.80178C23.1833 7.92852 23.2104 8.06452 23.2103 8.20185C23.2102 8.33919 23.1827 8.47513 23.1295 8.60176C23.0763 8.72838 22.9985 8.84317 22.9006 8.93944C22.8026 9.0357 22.6865 9.11152 22.559 9.16249L18.9732 10.6089C18.6429 10.7425 18.3601 10.9719 18.1613 11.2675C17.9624 11.5632 17.8565 11.9115 17.8572 12.2678V16.5232C17.857 16.8159 17.9287 17.1041 18.0661 17.3625L21.3054 23.4536C21.4225 23.6993 21.4403 23.9807 21.3551 24.2393C21.2699 24.4978 21.0883 24.7135 20.848 24.8415C20.6077 24.9694 20.3274 24.9998 20.0653 24.9262C19.8032 24.8526 19.5796 24.6807 19.4411 24.4464L15.8625 17.7143C15.7104 17.4281 15.4833 17.1888 15.2055 17.0218C14.9278 16.8549 14.6098 16.7667 14.2857 16.7667C13.9617 16.7667 13.6437 16.8549 13.3659 17.0218C13.0882 17.1888 12.8611 17.4281 12.709 17.7143L9.13216 24.4411C9.06709 24.5635 8.97854 24.6719 8.87158 24.7601C8.76461 24.8482 8.64132 24.9145 8.50875 24.955C8.37618 24.9956 8.23692 25.0096 8.09892 24.9963C7.96093 24.9831 7.8269 24.9427 7.70449 24.8777C7.58208 24.8126 7.47368 24.724 7.38549 24.6171C7.2973 24.5101 7.23104 24.3868 7.1905 24.2543C7.14996 24.1217 7.13592 23.9824 7.1492 23.8444C7.16248 23.7064 7.20281 23.5724 7.26788 23.45L10.5054 17.3607C10.6425 17.1028 10.7142 16.8153 10.7143 16.5232V12.2661C10.7143 11.9104 10.6081 11.5628 10.4092 11.2678C10.2104 10.9729 9.92798 10.7441 9.59824 10.6107L6.01252 9.16071C5.88499 9.10974 5.76887 9.03392 5.67092 8.93765C5.57296 8.84138 5.49513 8.7266 5.44196 8.59997C5.38878 8.47335 5.36132 8.33741 5.36117 8.20007C5.36102 8.06273 5.38819 7.92852 5.44109 7.80178Z" fill="#A729F5"/>
</svg>
