<svg width="29" height="29" viewBox="0 0 29 29" fill="currentColor" xmlns="http://www.w3.org/2000/svg">
<path d="M7.14286 1.78928C6.90606 1.78928 6.67896 1.88334 6.51151 2.05079C6.34407 2.21823 6.25 2.44533 6.25 2.68213V15.1786C6.25 16.1258 6.62627 17.0342 7.29605 17.7039C7.96582 18.3737 8.87423 18.75 9.82143 18.75H10.7143V23.2143C10.7143 23.683 10.8066 24.1472 10.986 24.5803C11.1654 25.0134 11.4283 25.4069 11.7598 25.7384C12.0913 26.0699 12.4848 26.3328 12.9179 26.5122C13.351 26.6916 13.8152 26.7839 14.2839 26.7839C14.7527 26.7839 15.2169 26.6916 15.65 26.5122C16.0831 26.3328 16.4766 26.0699 16.808 25.7384C17.1395 25.4069 17.4025 25.0134 17.5818 24.5803C17.7612 24.1472 17.8536 23.683 17.8536 23.2143V18.75H18.75C19.6972 18.75 20.6056 18.3737 21.2754 17.7039C21.9452 17.0342 22.3214 16.1258 22.3214 15.1786V2.68213C22.3214 2.44533 22.2274 2.21823 22.0599 2.05079C21.8925 1.88334 21.6654 1.78928 21.4286 1.78928H7.14286ZM20.5357 12.5H8.03571V3.57499H13.3929V6.25713C13.3929 6.49393 13.4869 6.72104 13.6544 6.88848C13.8218 7.05592 14.0489 7.14999 14.2857 7.14999C14.5225 7.14999 14.7496 7.05592 14.9171 6.88848C15.0845 6.72104 15.1786 6.49393 15.1786 6.25713V3.57499H16.9643V8.03213C16.9643 8.26893 17.0584 8.49604 17.2258 8.66348C17.3932 8.83092 17.6203 8.92499 17.8571 8.92499C18.0939 8.92499 18.321 8.83092 18.4885 8.66348C18.6559 8.49604 18.75 8.26893 18.75 8.03213V3.57499H20.5357V12.5ZM8.03571 15.1786V14.2857H20.5357V15.1786C20.5357 15.6522 20.3476 16.1064 20.0127 16.4413C19.6778 16.7761 19.2236 16.9643 18.75 16.9643H16.9607C16.7239 16.9643 16.4968 17.0583 16.3294 17.2258C16.1619 17.3932 16.0679 17.6203 16.0679 17.8571V23.2143C16.0679 23.6874 15.8799 24.1412 15.5454 24.4757C15.2108 24.8103 14.7571 24.9982 14.2839 24.9982C13.8108 24.9982 13.3571 24.8103 13.0225 24.4757C12.6879 24.1412 12.5 23.6874 12.5 23.2143V17.8571C12.5 17.6203 12.4059 17.3932 12.2385 17.2258C12.071 17.0583 11.8439 16.9643 11.6071 16.9643H9.82143C9.34783 16.9643 8.89362 16.7761 8.55874 16.4413C8.22385 16.1064 8.03571 15.6522 8.03571 15.1786Z" fill="#2FD887"/>
</svg>
