<svg width="29" height="29" viewBox="0 0 29 29" fill="currentColor" xmlns="http://www.w3.org/2000/svg">
  <path
    d="M17.5054 5.43392C17.6126 5.48151 17.7093 5.54975 17.7901 5.63474C17.8709 5.71973 17.9342 5.81981 17.9763 5.92925C18.0185 6.03869 18.0386 6.15536 18.0356 6.27259C18.0326 6.38983 18.0066 6.50532 17.959 6.61249L10.8161 22.6839C10.72 22.9004 10.5418 23.0697 10.3208 23.1548C10.0998 23.2399 9.85399 23.2336 9.63756 23.1375C9.42112 23.0413 9.25174 22.8632 9.16668 22.6421C9.08162 22.4211 9.08784 22.1754 9.18399 21.9589L16.3268 5.88749C16.3744 5.78031 16.4427 5.68356 16.5277 5.60276C16.6127 5.52196 16.7127 5.45869 16.8222 5.41657C16.9316 5.37445 17.0483 5.35431 17.1655 5.35728C17.2828 5.36026 17.3982 5.3863 17.5054 5.43392ZM7.73756 9.59999C7.82503 9.67808 7.89627 9.77263 7.9472 9.87825C7.99813 9.98387 8.02775 10.0985 8.03439 10.2156C8.04102 10.3326 8.02453 10.4499 7.98585 10.5605C7.94718 10.6712 7.88708 10.7732 7.80899 10.8607L4.76791 14.2857L7.81256 17.7107C7.89041 17.7984 7.95023 17.9006 7.9886 18.0114C8.02696 18.1222 8.04312 18.2395 8.03616 18.3566C8.0292 18.4737 7.99924 18.5882 7.94801 18.6937C7.89677 18.7992 7.82526 18.8936 7.73756 18.9714C7.64985 19.0493 7.54767 19.1091 7.43685 19.1475C7.32603 19.1858 7.20873 19.202 7.09167 19.195C6.9746 19.1881 6.86005 19.1581 6.75456 19.1069C6.64907 19.0556 6.5547 18.9841 6.47684 18.8964L2.90541 14.8786C2.76031 14.7152 2.68018 14.5042 2.68018 14.2857C2.68018 14.0672 2.76031 13.8562 2.90541 13.6928L6.47684 9.67499C6.55469 9.58726 6.64905 9.51573 6.75454 9.46449C6.86003 9.41324 6.97459 9.38328 7.09166 9.37631C7.20874 9.36935 7.32604 9.38552 7.43686 9.42389C7.54769 9.46227 7.64986 9.52211 7.73756 9.59999ZM20.8358 9.59999C20.9235 9.52211 21.0256 9.46227 21.1365 9.42389C21.2473 9.38552 21.3646 9.36935 21.4817 9.37631C21.5987 9.38328 21.7133 9.41324 21.8188 9.46449C21.9243 9.51573 22.0186 9.58726 22.0965 9.67499L25.6679 13.6928C25.813 13.8562 25.8932 14.0672 25.8932 14.2857C25.8932 14.5042 25.813 14.7152 25.6679 14.8786L22.0965 18.8964C22.0186 18.9841 21.9243 19.0556 21.8188 19.1069C21.7133 19.1581 21.5987 19.1881 21.4817 19.195C21.3646 19.202 21.2473 19.1858 21.1365 19.1475C21.0257 19.1091 20.9235 19.0493 20.8358 18.9714C20.7481 18.8936 20.6766 18.7992 20.6253 18.6937C20.5741 18.5882 20.5441 18.4737 20.5372 18.3566C20.5302 18.2395 20.5464 18.1222 20.5847 18.0114C20.6231 17.9006 20.6829 17.7984 20.7608 17.7107L23.8054 14.2857L20.7608 10.8607C20.6829 10.773 20.6231 10.6708 20.5847 10.56C20.5463 10.4492 20.5301 10.3319 20.5371 10.2148C20.5441 10.0977 20.574 9.98318 20.6253 9.87769C20.6765 9.77219 20.748 9.67783 20.8358 9.59999Z"
    fill="currentColor" />
</svg>