<svg width="29" height="29" viewBox="0 0 29 29" fill="none" xmlns="http://www.w3.org/2000/svg">
<path d="M15.1786 13.3929C15.1786 12.6825 15.4608 12.0012 15.9631 11.4988C16.4654 10.9965 17.1467 10.7143 17.8571 10.7143H20.5357C20.7725 10.7143 20.9996 10.8084 21.167 10.9758C21.3345 11.1433 21.4286 11.3704 21.4286 11.6072C21.4286 11.844 21.3345 12.0711 21.167 12.2385C20.9996 12.4059 20.7725 12.5 20.5357 12.5H17.8571C17.6203 12.5 17.3932 12.5941 17.2258 12.7615C17.0583 12.929 16.9643 13.1561 16.9643 13.3929V14.2857C16.9643 14.5225 17.0583 14.7496 17.2258 14.9171C17.3932 15.0845 17.6203 15.1786 17.8571 15.1786H18.75C19.4604 15.1786 20.1417 15.4608 20.644 15.9631C21.1463 16.4654 21.4286 17.1468 21.4286 17.8572V18.75C21.4286 19.4604 21.1463 20.1417 20.644 20.644C20.1417 21.1464 19.4604 21.4286 18.75 21.4286H16.0714C15.8346 21.4286 15.6075 21.3345 15.4401 21.1671C15.2726 20.9996 15.1786 20.7725 15.1786 20.5357C15.1786 20.2989 15.2726 20.0718 15.4401 19.9044C15.6075 19.7369 15.8346 19.6429 16.0714 19.6429H18.75C18.9868 19.6429 19.2139 19.5488 19.3813 19.3814C19.5488 19.2139 19.6428 18.9868 19.6428 18.75V17.8572C19.6428 17.6204 19.5488 17.3933 19.3813 17.2258C19.2139 17.0584 18.9868 16.9643 18.75 16.9643H17.8571C17.1467 16.9643 16.4654 16.6821 15.9631 16.1798C15.4608 15.6774 15.1786 14.9961 15.1786 14.2857V13.3929ZM14.2857 11.6072C14.2857 11.3704 14.1916 11.1433 14.0242 10.9758C13.8567 10.8084 13.6296 10.7143 13.3928 10.7143C13.156 10.7143 12.9289 10.8084 12.7615 10.9758C12.5941 11.1433 12.5 11.3704 12.5 11.6072V18.75C12.5 18.9868 12.4059 19.2139 12.2385 19.3814C12.071 19.5488 11.8439 19.6429 11.6071 19.6429H9.82141C9.58461 19.6429 9.35751 19.7369 9.19007 19.9044C9.02262 20.0718 8.92855 20.2989 8.92855 20.5357C8.92855 20.7725 9.02262 20.9996 9.19007 21.1671C9.35751 21.3345 9.58461 21.4286 9.82141 21.4286H11.6071C12.3175 21.4286 12.9988 21.1464 13.5012 20.644C14.0035 20.1417 14.2857 19.4604 14.2857 18.75V11.6072ZM3.57141 8.03573C3.57141 6.85173 4.04175 5.71622 4.87897 4.879C5.71619 4.04178 6.85169 3.57144 8.0357 3.57144H20.5357C21.7197 3.57144 22.8552 4.04178 23.6924 4.879C24.5296 5.71622 25 6.85173 25 8.03573V20.5357C25 21.7197 24.5296 22.8552 23.6924 23.6925C22.8552 24.5297 21.7197 25 20.5357 25H8.0357C6.85169 25 5.71619 24.5297 4.87897 23.6925C4.04175 22.8552 3.57141 21.7197 3.57141 20.5357V8.03573ZM8.0357 5.35716C7.3253 5.35716 6.64399 5.63936 6.14166 6.14169C5.63933 6.64402 5.35713 7.32533 5.35713 8.03573V20.5357C5.35713 21.2461 5.63933 21.9274 6.14166 22.4298C6.64399 22.9321 7.3253 23.2143 8.0357 23.2143H20.5357C21.2461 23.2143 21.9274 22.9321 22.4297 22.4298C22.9321 21.9274 23.2143 21.2461 23.2143 20.5357V8.03573C23.2143 7.32533 22.9321 6.64402 22.4297 6.14169C21.9274 5.63936 21.2461 5.35716 20.5357 5.35716H8.0357Z" fill="#306AFF"/>
</svg>
