<svg width="21" height="21" viewBox="0 0 21 21" fill="none" xmlns="http://www.w3.org/2000/svg">
<path d="M10.5 0C10.6989 0 10.8897 0.0790176 11.0303 0.21967C11.171 0.360322 11.25 0.551088 11.25 0.75V2.25C11.25 2.44891 11.171 2.63968 11.0303 2.78033C10.8897 2.92098 10.6989 3 10.5 3C10.3011 3 10.1103 2.92098 9.96967 2.78033C9.82902 2.63968 9.75 2.44891 9.75 2.25V0.75C9.75 0.551088 9.82902 0.360322 9.96967 0.21967C10.1103 0.0790176 10.3011 0 10.5 0ZM10.5 15C11.6935 15 12.8381 14.5259 13.682 13.682C14.5259 12.8381 15 11.6935 15 10.5C15 9.30653 14.5259 8.16193 13.682 7.31802C12.8381 6.47411 11.6935 6 10.5 6C9.30653 6 8.16193 6.47411 7.31802 7.31802C6.47411 8.16193 6 9.30653 6 10.5C6 11.6935 6.47411 12.8381 7.31802 13.682C8.16193 14.5259 9.30653 15 10.5 15ZM10.5 13.5C9.70435 13.5 8.94129 13.1839 8.37868 12.6213C7.81607 12.0587 7.5 11.2956 7.5 10.5C7.5 9.70435 7.81607 8.94129 8.37868 8.37868C8.94129 7.81607 9.70435 7.5 10.5 7.5C11.2956 7.5 12.0587 7.81607 12.6213 8.37868C13.1839 8.94129 13.5 9.70435 13.5 10.5C13.5 11.2956 13.1839 12.0587 12.6213 12.6213C12.0587 13.1839 11.2956 13.5 10.5 13.5ZM20.25 11.25C20.4489 11.25 20.6397 11.171 20.7803 11.0303C20.921 10.8897 21 10.6989 21 10.5C21 10.3011 20.921 10.1103 20.7803 9.96967C20.6397 9.82902 20.4489 9.75 20.25 9.75H18.75C18.5511 9.75 18.3603 9.82902 18.2197 9.96967C18.079 10.1103 18 10.3011 18 10.5C18 10.6989 18.079 10.8897 18.2197 11.0303C18.3603 11.171 18.5511 11.25 18.75 11.25H20.25ZM10.5 18C10.6989 18 10.8897 18.079 11.0303 18.2197C11.171 18.3603 11.25 18.5511 11.25 18.75V20.25C11.25 20.4489 11.171 20.6397 11.0303 20.7803C10.8897 20.921 10.6989 21 10.5 21C10.3011 21 10.1103 20.921 9.96967 20.7803C9.82902 20.6397 9.75 20.4489 9.75 20.25V18.75C9.75 18.5511 9.82902 18.3603 9.96967 18.2197C10.1103 18.079 10.3011 18 10.5 18ZM2.25 11.25C2.44891 11.25 2.63968 11.171 2.78033 11.0303C2.92098 10.8897 3 10.6989 3 10.5C3 10.3011 2.92098 10.1103 2.78033 9.96967C2.63968 9.82902 2.44891 9.75 2.25 9.75H0.75C0.551088 9.75 0.360322 9.82902 0.21967 9.96967C0.0790176 10.1103 0 10.3011 0 10.5C0 10.6989 0.0790176 10.8897 0.21967 11.0303C0.360322 11.171 0.551088 11.25 0.75 11.25H2.25ZM3.219 3.219C3.28867 3.14915 3.37143 3.09374 3.46255 3.05593C3.55367 3.01812 3.65135 2.99866 3.75 2.99866C3.84865 2.99866 3.94633 3.01812 4.03745 3.05593C4.12857 3.09374 4.21133 3.14915 4.281 3.219L5.781 4.719C5.85073 4.78873 5.90605 4.87152 5.94379 4.96262C5.98152 5.05373 6.00095 5.15138 6.00095 5.25C6.00095 5.34862 5.98152 5.44627 5.94379 5.53738C5.90605 5.62848 5.85073 5.71127 5.781 5.781C5.71127 5.85073 5.62848 5.90605 5.53738 5.94379C5.44627 5.98152 5.34862 6.00095 5.25 6.00095C5.15138 6.00095 5.05373 5.98152 4.96262 5.94379C4.87152 5.90605 4.78873 5.85073 4.719 5.781L3.219 4.281C3.14915 4.21133 3.09374 4.12857 3.05593 4.03745C3.01812 3.94633 2.99866 3.84865 2.99866 3.75C2.99866 3.65135 3.01812 3.55367 3.05593 3.46255C3.09374 3.37143 3.14915 3.28867 3.219 3.219ZM4.281 17.781C4.21137 17.8507 4.12868 17.9061 4.03766 17.9438C3.94664 17.9816 3.84908 18.0011 3.75053 18.0012C3.65198 18.0012 3.55439 17.9819 3.46332 17.9442C3.37225 17.9066 3.28948 17.8514 3.21975 17.7817C3.15002 17.7121 3.09468 17.6294 3.05691 17.5384C3.01913 17.4474 2.99965 17.3498 2.99958 17.2513C2.99951 17.1527 3.01885 17.0551 3.0565 16.9641C3.09415 16.873 3.14937 16.7902 3.219 16.7205L4.719 15.2205C4.78863 15.1508 4.87132 15.0954 4.96234 15.0577C5.05336 15.0199 5.15092 15.0004 5.24947 15.0003C5.34802 15.0003 5.44561 15.0196 5.53668 15.0573C5.62775 15.0949 5.71052 15.1501 5.78025 15.2197C5.84998 15.2894 5.90532 15.3721 5.94309 15.4631C5.98087 15.5541 6.00035 15.6517 6.00042 15.7502C6.00049 15.8488 5.98115 15.9464 5.9435 16.0374C5.90585 16.1285 5.85063 16.2113 5.781 16.281L4.281 17.781ZM17.781 3.219C17.7113 3.14915 17.6286 3.09374 17.5374 3.05593C17.4463 3.01812 17.3487 2.99866 17.25 2.99866C17.1513 2.99866 17.0537 3.01812 16.9626 3.05593C16.8714 3.09374 16.7887 3.14915 16.719 3.219L15.219 4.719C15.0782 4.85983 14.9991 5.05084 14.9991 5.25C14.9991 5.44916 15.0782 5.64017 15.219 5.781C15.3598 5.92183 15.5508 6.00095 15.75 6.00095C15.9492 6.00095 16.1402 5.92183 16.281 5.781L17.781 4.281C17.8508 4.21133 17.9063 4.12857 17.9441 4.03745C17.9819 3.94633 18.0013 3.84865 18.0013 3.75C18.0013 3.65135 17.9819 3.55367 17.9441 3.46255C17.9063 3.37143 17.8508 3.28867 17.781 3.219ZM16.719 17.781C16.8596 17.9218 17.0504 18.001 17.2495 18.0012C17.4485 18.0013 17.6394 17.9224 17.7803 17.7817C17.9211 17.6411 18.0003 17.4503 18.0004 17.2513C18.0006 17.0523 17.9216 16.8613 17.781 16.7205L16.281 15.2205C16.1404 15.0797 15.9496 15.0005 15.7505 15.0003C15.5515 15.0002 15.3606 15.0791 15.2197 15.2197C15.0789 15.3604 14.9997 15.5512 14.9996 15.7502C14.9994 15.9492 15.0784 16.1402 15.219 16.281L16.719 17.781Z" fill="#626C7F"/>
</svg>
